<svg width="80" height="80" viewBox="0 0 80 80" fill="none" xmlns="http://www.w3.org/2000/svg">
<g clip-path="url(#clip0_150_2359)">
<mask id="mask0_150_2359" style="mask-type:luminance" maskUnits="userSpaceOnUse" x="0" y="0" width="80" height="80">
<path d="M80 0H0V80H80V0Z" fill="white"/>
</mask>
<g mask="url(#mask0_150_2359)">
<path d="M40 80C62.0915 80 80 62.0915 80 40C80 17.9086 62.0915 0 40 0C17.9086 0 0 17.9086 0 40C0 62.0915 17.9086 80 40 80Z" fill="#155DFC"/>
<path d="M25 59.2855V62.7855H32V59.2855H28.5H25ZM28.5 20.7142V17.2142C26.567 17.2142 25 18.7812 25 20.7142H28.5ZM52.1107 24.1035L49.6358 26.5783L49.6358 26.5783L52.1107 24.1035ZM28.5 59.2855H32V20.7142H28.5H25V59.2855H28.5ZM28.5 20.7142V24.2142H43.9286V20.7142V17.2142H28.5V20.7142ZM43.9286 20.7142V24.2142C46.0692 24.2142 48.1222 25.0646 49.6358 26.5783L52.1107 24.1035L54.5856 21.6287C51.7592 18.8021 47.9257 17.2142 43.9286 17.2142V20.7142ZM52.1107 24.1035L49.6358 26.5783C51.1495 28.092 52 30.1451 52 32.2855H55.5H59C59 28.2883 57.4118 24.4549 54.5856 21.6286L52.1107 24.1035ZM55.5 32.2855H52C52 34.4263 51.1495 36.4793 49.6358 37.993L52.1107 40.4679L54.5856 42.9428C57.4119 40.1165 59 36.283 59 32.2855H55.5ZM52.1107 40.4679L49.6358 37.993C48.1221 39.5067 46.069 40.3572 43.9286 40.3572V43.8572V47.3572C47.9258 47.3572 51.7593 45.769 54.5856 42.9428L52.1107 40.4679ZM43.9286 43.8572V40.3572H28.5V43.8572V47.3572H43.9286V43.8572Z" fill="white"/>
</g>
</g>
<defs>
<clipPath id="clip0_150_2359">
<rect width="80" height="80" fill="white"/>
</clipPath>
</defs>
</svg>
