<svg width="180" height="180" viewBox="0 0 180 180" fill="none" xmlns="http://www.w3.org/2000/svg">
<g clip-path="url(#clip0_170_886)">
<mask id="mask0_170_886" style="mask-type:luminance" maskUnits="userSpaceOnUse" x="5" y="5" width="170" height="170">
<path d="M175 5H5V175H175V5Z" fill="white"/>
</mask>
<g mask="url(#mask0_170_886)">
<path d="M90 175C136.944 175 175 136.944 175 90C175 43.0558 136.944 5 90 5C43.0558 5 5 43.0558 5 90C5 136.944 43.0558 175 90 175Z" fill="#155DFC"/>
<path d="M58.125 130.982V138.419H73V130.982H65.5625H58.125ZM65.5625 49.0176V41.5801C61.4549 41.5801 58.125 44.91 58.125 49.0176H65.5625ZM115.735 56.2197L110.476 61.4787L110.476 61.4788L115.735 56.2197ZM65.5625 130.982H73V49.0176H65.5625H58.125V130.982H65.5625ZM65.5625 49.0176V56.4551H98.3483V49.0176V41.5801H65.5625V49.0176ZM98.3483 49.0176V56.4551C102.897 56.4551 107.26 58.2621 110.476 61.4787L115.735 56.2197L120.994 50.9607C114.988 44.9543 106.842 41.5801 98.3483 41.5801V49.0176ZM115.735 56.2197L110.476 61.4788C113.693 64.6954 115.5 69.0582 115.5 73.6066H122.938H130.375C130.375 65.1125 127 56.9664 120.994 50.9606L115.735 56.2197ZM122.938 73.6066H115.5C115.5 78.1557 113.693 82.5184 110.476 85.735L115.735 90.9941L120.994 96.2532C127 90.2473 130.375 82.1012 130.375 73.6066H122.938ZM115.735 90.9941L110.476 85.735C107.259 88.9516 102.897 90.7589 98.3483 90.7589V98.1964V105.634C106.842 105.634 114.989 102.259 120.994 96.2532L115.735 90.9941ZM98.3483 98.1964V90.7589H65.5625V98.1964V105.634H98.3483V98.1964Z" fill="white"/>
</g>
</g>
<defs>
<clipPath id="clip0_170_886">
<rect width="170" height="170" fill="white" transform="translate(5 5)"/>
</clipPath>
</defs>
</svg>
