<svg width="125" height="125" viewBox="0 0 125 125" fill="none" xmlns="http://www.w3.org/2000/svg">
<g clip-path="url(#clip0_145_1066)">
<path d="M62.5 125C97.018 125 125 97.0178 125 62.4999C125 27.9821 97.018 -0.00012207 62.5 -0.00012207C27.9822 -0.00012207 0 27.9821 0 62.4999C0 97.0178 27.9822 125 62.5 125Z" fill="#155DFC"/>
<path d="M39.0625 92.6336V98.1024H50V92.6336H44.5312H39.0625ZM44.5312 32.366V26.8972C41.5109 26.8972 39.0625 29.3457 39.0625 32.366H44.5312ZM81.423 37.6616L77.5559 41.5285L77.556 41.5286L81.423 37.6616ZM44.5312 92.6336H50V32.366H44.5312H39.0625V92.6336H44.5312ZM44.5312 32.366V37.8347H68.6385V32.366V26.8972H44.5312V32.366ZM68.6385 32.366V37.8347C71.9831 37.8347 75.1909 39.1634 77.5559 41.5285L81.423 37.6616L85.29 33.7947C80.8738 29.3783 74.8839 26.8972 68.6385 26.8972V32.366ZM81.423 37.6616L77.556 41.5286C79.9211 43.8938 81.25 47.1017 81.25 50.4461H86.7188H92.1875C92.1875 44.2005 89.706 38.2107 85.2899 33.7946L81.423 37.6616ZM86.7188 50.4461H81.25C81.25 53.791 79.9211 56.9989 77.556 59.3641L81.423 63.2311L85.2899 67.098C89.706 62.682 92.1875 56.6921 92.1875 50.4461H86.7188ZM81.423 63.2311L77.556 59.3641C75.1908 61.7292 71.9829 63.0581 68.6385 63.0581V68.5269V73.9956C74.8841 73.9956 80.8739 71.5141 85.2899 67.098L81.423 63.2311ZM68.6385 68.5269V63.0581H44.5312V68.5269V73.9956H68.6385V68.5269Z" fill="white"/>
</g>
<defs>
<clipPath id="clip0_145_1066">
<rect width="125" height="125" fill="white"/>
</clipPath>
</defs>
</svg>
