<svg width="24" height="24" viewBox="0 0 24 24" fill="none" xmlns="http://www.w3.org/2000/svg">
<path d="M17.0205 15.501C17.0381 15.5013 17.0557 15.5017 17.0732 15.5029C17.0909 15.5042 17.1085 15.5056 17.126 15.5078C17.1378 15.5093 17.1494 15.5118 17.1611 15.5137C17.1802 15.5168 17.1991 15.5203 17.2178 15.5244C17.2269 15.5264 17.236 15.529 17.2451 15.5312C17.3141 15.5487 17.3799 15.5736 17.4424 15.6045C17.4746 15.6204 17.5064 15.6376 17.5371 15.6572C17.5449 15.6622 17.5529 15.6667 17.5605 15.6719C17.6122 15.7069 17.6613 15.7472 17.707 15.793L20.707 18.793C21.0976 19.1835 21.0976 19.8165 20.707 20.207C20.3165 20.5976 19.6835 20.5976 19.293 20.207L18 18.9141V22C18 22.5523 17.5523 23 17 23C16.4477 23 16 22.5523 16 22V18.9141L14.707 20.207C14.3165 20.5976 13.6835 20.5976 13.293 20.207C12.9024 19.8165 12.9024 19.1835 13.293 18.793L16.293 15.793C16.3548 15.7312 16.4248 15.6778 16.501 15.6338C16.5154 15.6255 16.5302 15.6179 16.5449 15.6104C16.6073 15.5784 16.6731 15.5526 16.7422 15.5342C16.7588 15.5298 16.7753 15.525 16.792 15.5215C16.803 15.5192 16.8141 15.5176 16.8252 15.5156C16.8427 15.5125 16.8603 15.51 16.8779 15.5078C16.8957 15.5056 16.9136 15.5041 16.9316 15.5029C16.9476 15.5018 16.9635 15.5013 16.9795 15.501C16.9863 15.5008 16.9931 15.5 17 15.5C17.0069 15.5 17.0137 15.5008 17.0205 15.501ZM19 2C19.7957 2 20.5585 2.3163 21.1211 2.87891C21.6837 3.44152 22 4.20435 22 5V15C22 15.4044 21.7564 15.769 21.3828 15.9238C21.0091 16.0786 20.579 15.993 20.293 15.707L17.2002 12.6143L17.127 12.5488C16.9488 12.4055 16.7257 12.327 16.4951 12.3281C16.2317 12.3294 15.9793 12.4348 15.793 12.6211L8.41406 20H10.2998C10.8521 20 11.2998 20.4477 11.2998 21C11.2998 21.5523 10.8521 22 10.2998 22H5C4.20435 22 3.44152 21.6837 2.87891 21.1211C2.3163 20.5585 2 19.7957 2 19V5C2 4.20435 2.3163 3.44152 2.87891 2.87891C3.44152 2.3163 4.20435 2 5 2H19ZM5 4C4.73478 4 4.4805 4.10543 4.29297 4.29297C4.10543 4.4805 4 4.73478 4 5V19C4 19.2652 4.10543 19.5195 4.29297 19.707C4.48051 19.8946 4.73478 20 5 20H5.58594L14.3789 11.207L14.5977 11.0088C15.1278 10.574 15.7938 10.3316 16.4854 10.3281C17.2755 10.3242 18.0352 10.6326 18.5996 11.1855L18.6074 11.1924V11.1934L20 12.5859V5C20 4.73478 19.8946 4.48051 19.707 4.29297C19.5195 4.10543 19.2652 4 19 4H5ZM9 6C10.6569 6 12 7.34315 12 9C12 10.6569 10.6569 12 9 12C7.34315 12 6 10.6569 6 9C6 7.34315 7.34315 6 9 6ZM9 8C8.44772 8 8 8.44772 8 9C8 9.55228 8.44772 10 9 10C9.55228 10 10 9.55228 10 9C10 8.44772 9.55228 8 9 8Z" fill="#717182"/>
</svg>
