<svg width="20" height="20" viewBox="0 0 20 20" fill="none" xmlns="http://www.w3.org/2000/svg">
<path d="M15.833 1.75C16.4739 1.75 17.0888 2.00479 17.542 2.45801C17.9952 2.91122 18.25 3.52605 18.25 4.16699V15.833C18.25 16.4739 17.9952 17.0888 17.542 17.542C17.0888 17.9952 16.4739 18.25 15.833 18.25H12.5C12.0858 18.25 11.75 17.9142 11.75 17.5C11.75 17.0858 12.0858 16.75 12.5 16.75H15.833C16.0761 16.75 16.3095 16.6534 16.4814 16.4814C16.6534 16.3095 16.75 16.0761 16.75 15.833V4.16699C16.75 3.92388 16.6534 3.69046 16.4814 3.51855C16.3095 3.34665 16.0761 3.25 15.833 3.25H12.5C12.0858 3.25 11.75 2.91421 11.75 2.5C11.75 2.08579 12.0858 1.75 12.5 1.75H15.833ZM7.80273 5.30273C8.09559 5.01005 8.57043 5.01005 8.86328 5.30273L13.0303 9.46973C13.0614 9.5009 13.0878 9.53546 13.1123 9.57031C13.1436 9.61483 13.1712 9.66198 13.1924 9.71289C13.2034 9.73951 13.2099 9.76743 13.2178 9.79492C13.2232 9.81409 13.2304 9.83278 13.2344 9.85254C13.2353 9.85706 13.2355 9.86168 13.2363 9.86621C13.2442 9.90972 13.25 9.95423 13.25 10C13.25 10.045 13.2449 10.089 13.2373 10.1318C13.228 10.1845 13.213 10.2361 13.1924 10.2861C13.1803 10.3153 13.1639 10.342 13.1484 10.3691C13.116 10.4261 13.0789 10.4816 13.0303 10.5303L8.86328 14.6963C8.57039 14.9892 8.09563 14.9892 7.80273 14.6963C7.51016 14.4034 7.50995 13.9285 7.80273 13.6357L10.6875 10.75H2.5C2.08579 10.75 1.75 10.4142 1.75 10C1.75 9.58579 2.08579 9.25 2.5 9.25H10.6895L7.80273 6.36328C7.51 6.07038 7.50989 5.59557 7.80273 5.30273Z" fill="#717182"/>
</svg>
