<svg width="160" height="33" viewBox="0 0 160 33" fill="none" xmlns="http://www.w3.org/2000/svg">
<g clip-path="url(#clip0_147_1467)">
<mask id="mask0_147_1467" style="mask-type:luminance" maskUnits="userSpaceOnUse" x="0" y="0" width="32" height="33">
<path d="M32 0.997925H0V32.9979H32V0.997925Z" fill="white"/>
</mask>
<g mask="url(#mask0_147_1467)">
<path d="M16 32.9979C24.8366 32.9979 32 25.8345 32 16.9979C32 8.16136 24.8366 0.997925 16 0.997925C7.16344 0.997925 0 8.16136 0 16.9979C0 25.8345 7.16344 32.9979 16 32.9979Z" fill="#155DFC"/>
<path d="M10.0004 24.7121V26.1121H12.8004V24.7121H11.4004H10.0004ZM11.4004 9.28357V7.88357C10.6272 7.88357 10.0004 8.51037 10.0004 9.28357H11.4004ZM20.8447 10.6393L19.8547 11.6292L19.8547 11.6292L20.8447 10.6393ZM11.4004 24.7121H12.8004V9.28357H11.4004H10.0004V24.7121H11.4004ZM11.4004 9.28357V10.6836H17.5718V9.28357V7.88357H11.4004V9.28357ZM17.5718 9.28357V10.6836C18.4281 10.6836 19.2493 11.0237 19.8547 11.6292L20.8447 10.6393L21.8346 9.64934C20.7041 8.51872 19.1707 7.88357 17.5718 7.88357V9.28357ZM20.8447 10.6393L19.8547 11.6292C20.4602 12.2347 20.8004 13.0559 20.8004 13.9121H22.2004H23.6004C23.6004 12.3132 22.9651 10.7798 21.8346 9.64931L20.8447 10.6393ZM22.2004 13.9121H20.8004C20.8004 14.7684 20.4602 15.5896 19.8547 16.1951L20.8447 17.185L21.8346 18.175C22.9651 17.0445 23.6004 15.5111 23.6004 13.9121H22.2004ZM20.8447 17.185L19.8547 16.1951C19.2492 16.8006 18.428 17.1408 17.5718 17.1408V18.5408V19.9408C19.1707 19.9408 20.7041 19.3055 21.8346 18.175L20.8447 17.185ZM17.5718 18.5408V17.1408H11.4004V18.5408V19.9408H17.5718V18.5408Z" fill="white"/>
</g>
</g>
<path d="M159.874 7.86035V25.7013H156.721V7.86035H159.874Z" fill="#155DFC"/>
<path d="M146.996 25.9714C146.148 25.9714 145.385 25.8204 144.705 25.5184C144.031 25.2106 143.497 24.7576 143.102 24.1594C142.713 23.5612 142.519 22.8237 142.519 21.9467C142.519 21.1917 142.658 20.5674 142.937 20.0737C143.215 19.5801 143.596 19.1852 144.078 18.889C144.56 18.5928 145.103 18.3692 145.707 18.2182C146.317 18.0614 146.947 17.9482 147.597 17.8785C148.381 17.7972 149.017 17.7246 149.505 17.6607C149.993 17.591 150.347 17.4865 150.568 17.3471C150.794 17.2019 150.908 16.9783 150.908 16.6763V16.624C150.908 15.9678 150.713 15.4596 150.324 15.0995C149.935 14.7395 149.374 14.5594 148.643 14.5594C147.87 14.5594 147.258 14.7278 146.805 15.0647C146.357 15.4015 146.055 15.7993 145.899 16.2581L142.954 15.84C143.186 15.0269 143.57 14.3474 144.104 13.8015C144.638 13.2498 145.292 12.8375 146.064 12.5645C146.837 12.2857 147.69 12.1464 148.625 12.1464C149.27 12.1464 149.912 12.2219 150.55 12.3729C151.189 12.5239 151.773 12.7736 152.301 13.122C152.83 13.4647 153.254 13.9322 153.573 14.5246C153.899 15.117 154.061 15.8574 154.061 16.746V25.7013H151.03V23.8632H150.925C150.733 24.2349 150.463 24.5834 150.115 24.9086C149.772 25.228 149.34 25.4864 148.817 25.6839C148.3 25.8755 147.693 25.9714 146.996 25.9714ZM147.815 23.6541C148.448 23.6541 148.997 23.5293 149.462 23.2795C149.926 23.024 150.283 22.6872 150.533 22.269C150.789 21.8509 150.916 21.395 150.916 20.9013V19.3246C150.818 19.4059 150.649 19.4814 150.411 19.5511C150.179 19.6208 149.917 19.6817 149.627 19.734C149.337 19.7863 149.049 19.8327 148.765 19.8734C148.48 19.914 148.233 19.9489 148.024 19.9779C147.554 20.0418 147.133 20.1463 146.761 20.2915C146.389 20.4367 146.096 20.64 145.881 20.9013C145.666 21.1569 145.559 21.4879 145.559 21.8944C145.559 22.4752 145.771 22.9137 146.195 23.2099C146.619 23.506 147.159 23.6541 147.815 23.6541Z" fill="#155DFC"/>
<path d="M128.249 25.7013V7.86035H134.939C136.31 7.86035 137.46 8.11589 138.389 8.62696C139.324 9.13803 140.03 9.84075 140.506 10.7351C140.988 11.6237 141.229 12.6342 141.229 13.7667C141.229 14.9108 140.988 15.9271 140.506 16.8157C140.024 17.7042 139.313 18.4041 138.372 18.9151C137.431 19.4204 136.272 19.673 134.896 19.673H130.462V17.016H134.46C135.262 17.016 135.918 16.8767 136.429 16.5979C136.94 16.3191 137.318 15.9358 137.562 15.448C137.811 14.9602 137.936 14.3997 137.936 13.7667C137.936 13.1337 137.811 12.5761 137.562 12.0941C137.318 11.6121 136.937 11.2375 136.42 10.9703C135.909 10.6974 135.25 10.5609 134.443 10.5609H131.481V25.7013H128.249Z" fill="#155DFC"/>
<path d="M119.107 30.9979C117.975 30.9979 117.002 30.844 116.189 30.5362C115.376 30.2342 114.723 29.8276 114.229 29.3166C113.735 28.8055 113.393 28.2392 113.201 27.6178L116.041 26.9296C116.169 27.191 116.354 27.4494 116.598 27.7049C116.842 27.9663 117.17 28.1812 117.583 28.3496C118.001 28.5238 118.527 28.6109 119.16 28.6109C120.054 28.6109 120.794 28.3931 121.381 27.9576C121.968 27.5278 122.261 26.8193 122.261 25.832V23.297H122.104C121.941 23.6222 121.703 23.9561 121.39 24.2988C121.082 24.6414 120.672 24.9289 120.161 25.1612C119.656 25.3935 119.02 25.5097 118.254 25.5097C117.226 25.5097 116.294 25.2687 115.457 24.7866C114.627 24.2988 113.965 23.5728 113.471 22.6088C112.983 21.6389 112.739 20.4251 112.739 18.9674C112.739 17.4981 112.983 16.2581 113.471 15.2476C113.965 14.2313 114.63 13.4618 115.466 12.9391C116.302 12.4106 117.234 12.1464 118.262 12.1464C119.046 12.1464 119.691 12.2799 120.196 12.5471C120.707 12.8084 121.114 13.1249 121.416 13.4966C121.718 13.8625 121.947 14.2081 122.104 14.5333H122.278V12.3206H125.388V25.9191C125.388 27.0632 125.115 28.0098 124.569 28.759C124.023 29.5082 123.277 30.0686 122.331 30.4403C121.384 30.812 120.309 30.9979 119.107 30.9979ZM119.133 23.0356C119.801 23.0356 120.37 22.873 120.841 22.5478C121.311 22.2226 121.668 21.7551 121.912 21.1453C122.156 20.5355 122.278 19.8037 122.278 18.95C122.278 18.1079 122.156 17.3703 121.912 16.7373C121.674 16.1042 121.32 15.6135 120.85 15.265C120.385 14.9108 119.813 14.7337 119.133 14.7337C118.431 14.7337 117.844 14.9166 117.374 15.2825C116.903 15.6484 116.549 16.1507 116.311 16.7895C116.073 17.4226 115.954 18.1427 115.954 18.95C115.954 19.7688 116.073 20.4861 116.311 21.1017C116.555 21.7115 116.912 22.1877 117.382 22.5304C117.859 22.8672 118.442 23.0356 119.133 23.0356Z" fill="#0A0A0A"/>
<path d="M102.004 17.861V25.7013H98.8506V12.3206H101.865V14.5943H102.022C102.329 13.8451 102.82 13.2498 103.494 12.8084C104.173 12.3671 105.012 12.1464 106.011 12.1464C106.935 12.1464 107.739 12.3438 108.424 12.7387C109.116 13.1337 109.65 13.7057 110.027 14.4549C110.411 15.2041 110.599 16.113 110.594 17.1816V25.7013H107.44V17.6694C107.44 16.775 107.208 16.0752 106.743 15.5699C106.284 15.0647 105.648 14.8121 104.835 14.8121C104.284 14.8121 103.793 14.934 103.363 15.1779C102.939 15.416 102.605 15.7616 102.361 16.2146C102.123 16.6676 102.004 17.2164 102.004 17.861Z" fill="#0A0A0A"/>
<path d="M92.9656 25.7013V12.3206H96.1191V25.7013H92.9656ZM94.5511 10.4215C94.0516 10.4215 93.6219 10.256 93.2618 9.92496C92.9017 9.58812 92.7217 9.18449 92.7217 8.71407C92.7217 8.23785 92.9017 7.83422 93.2618 7.50319C93.6219 7.16635 94.0516 6.99792 94.5511 6.99792C95.0563 6.99792 95.4861 7.16635 95.8404 7.50319C96.2004 7.83422 96.3805 8.23785 96.3805 8.71407C96.3805 9.18449 96.2004 9.58812 95.8404 9.92496C95.4861 10.256 95.0563 10.4215 94.5511 10.4215Z" fill="#0A0A0A"/>
<path d="M82.3845 21.5024L82.3758 17.6955H82.8811L87.6898 12.3206H91.3747L85.4597 18.9064H84.8063L82.3845 21.5024ZM79.5098 25.7013V7.86035H82.6633V25.7013H79.5098ZM87.9076 25.7013L83.5519 19.612L85.6774 17.3906L91.6796 25.7013H87.9076Z" fill="#0A0A0A"/>
<path d="M70.2939 25.7013V12.3206H73.3517V14.5507H73.491C73.735 13.7783 74.1531 13.183 74.7455 12.7648C75.3437 12.3409 76.0261 12.1289 76.7927 12.1289C76.9669 12.1289 77.1614 12.1376 77.3763 12.155C77.597 12.1667 77.78 12.187 77.9251 12.216V15.1169C77.7916 15.0705 77.5796 15.0298 77.2892 14.995C77.0046 14.9543 76.7288 14.934 76.4616 14.934C75.8867 14.934 75.3698 15.0588 74.911 15.3086C74.458 15.5525 74.1008 15.8922 73.8395 16.3278C73.5781 16.7634 73.4475 17.2657 73.4475 17.8349V25.7013H70.2939Z" fill="#0A0A0A"/>
<path d="M60.5695 25.9714C59.7216 25.9714 58.9579 25.8204 58.2784 25.5184C57.6047 25.2106 57.0704 24.7576 56.6755 24.1594C56.2864 23.5612 56.0918 22.8237 56.0918 21.9467C56.0918 21.1917 56.2312 20.5674 56.5099 20.0737C56.7887 19.5801 57.1691 19.1852 57.6511 18.889C58.1332 18.5928 58.6762 18.3692 59.2802 18.2182C59.89 18.0614 60.5201 17.9482 61.1706 17.8785C61.9546 17.7972 62.5905 17.7246 63.0783 17.6607C63.5662 17.591 63.9205 17.4865 64.1411 17.3471C64.3676 17.2019 64.4809 16.9783 64.4809 16.6763V16.624C64.4809 15.9678 64.2863 15.4596 63.8972 15.0995C63.5081 14.7395 62.9477 14.5594 62.2159 14.5594C61.4435 14.5594 60.8308 14.7278 60.3778 15.0647C59.9306 15.4015 59.6286 15.7993 59.4718 16.2581L56.5274 15.84C56.7597 15.0269 57.143 14.3474 57.6773 13.8015C58.2116 13.2498 58.8649 12.8375 59.6373 12.5645C60.4098 12.2857 61.2635 12.1464 62.1985 12.1464C62.8431 12.1464 63.4849 12.2219 64.1237 12.3729C64.7626 12.5239 65.3462 12.7736 65.8747 13.122C66.4032 13.4647 66.8272 13.9322 67.1466 14.5246C67.4718 15.117 67.6344 15.8574 67.6344 16.746V25.7013H64.6028V23.8632H64.4983C64.3067 24.2349 64.0366 24.5834 63.6881 24.9086C63.3455 25.228 62.9128 25.4864 62.3901 25.6839C61.8733 25.8755 61.2664 25.9714 60.5695 25.9714ZM61.3883 23.6541C62.0214 23.6541 62.5702 23.5293 63.0348 23.2795C63.4994 23.024 63.8566 22.6872 64.1063 22.269C64.3618 21.8509 64.4896 21.395 64.4896 20.9013V19.3246C64.3909 19.4059 64.2224 19.4814 63.9843 19.5511C63.752 19.6208 63.4907 19.6817 63.2003 19.734C62.9099 19.7863 62.6225 19.8327 62.3379 19.8734C62.0533 19.914 61.8065 19.9489 61.5974 19.9779C61.127 20.0418 60.7059 20.1463 60.3343 20.2915C59.9626 20.4367 59.6693 20.64 59.4544 20.9013C59.2395 21.1569 59.1321 21.4879 59.1321 21.8944C59.1321 22.4752 59.3441 22.9137 59.768 23.2099C60.192 23.506 60.7321 23.6541 61.3883 23.6541Z" fill="#0A0A0A"/>
<path d="M41.8223 25.7013V7.86035H48.5126C49.8832 7.86035 51.0331 8.11589 51.9624 8.62696C52.8974 9.13803 53.603 9.84075 54.0792 10.7351C54.5613 11.6237 54.8023 12.6342 54.8023 13.7667C54.8023 14.9108 54.5613 15.9271 54.0792 16.8157C53.5972 17.7042 52.8858 18.4041 51.9449 18.9151C51.0041 19.4204 49.8455 19.673 48.4691 19.673H44.035V17.016H48.0335C48.835 17.016 49.4912 16.8767 50.0023 16.5979C50.5134 16.3191 50.8908 15.9358 51.1348 15.448C51.3845 14.9602 51.5094 14.3997 51.5094 13.7667C51.5094 13.1337 51.3845 12.5761 51.1348 12.0941C50.8908 11.6121 50.5104 11.2375 49.9936 10.9703C49.4825 10.6974 48.8233 10.5609 48.0161 10.5609H45.0542V25.7013H41.8223Z" fill="#0A0A0A"/>
<defs>
<clipPath id="clip0_147_1467">
<rect width="32" height="32" fill="white" transform="translate(0 0.997925)"/>
</clipPath>
</defs>
</svg>
