<svg width="34" height="46" viewBox="0 0 34 46" fill="none" xmlns="http://www.w3.org/2000/svg">
<path d="M0 42.0713V45.5713H7V42.0713H3.5H0ZM3.5 3.5V0C1.567 0 0 1.567 0 3.5L3.5 3.5ZM27.1107 6.88923L24.6358 9.36404L24.6358 9.3641L27.1107 6.88923ZM3.5 42.0713H7V3.5H3.5H0V42.0713H3.5ZM3.5 3.5V7H18.9286V3.5V0H3.5V3.5ZM18.9286 3.5V7C21.0692 7 23.1222 7.85038 24.6358 9.36404L27.1107 6.88923L29.5856 4.41442C26.7592 1.58788 22.9257 0 18.9286 0V3.5ZM27.1107 6.88923L24.6358 9.3641C26.1495 10.8778 27 12.9309 27 15.0713H30.5H34C34 11.0741 32.4118 7.24062 29.5856 4.41435L27.1107 6.88923ZM30.5 15.0713H27C27 17.212 26.1495 19.2651 24.6358 20.7788L27.1107 23.2537L29.5856 25.7285C32.4119 22.9022 34 19.0688 34 15.0713H30.5ZM27.1107 23.2537L24.6358 20.7788C23.1221 22.2925 21.069 23.143 18.9286 23.143V26.643V30.143C22.9258 30.143 26.7593 28.5548 29.5856 25.7285L27.1107 23.2537ZM18.9286 26.643V23.143H3.5V26.643V30.143H18.9286V26.643Z" fill="white"/>
</svg>
