<svg width="24" height="21" viewBox="0 0 24 21" fill="none" xmlns="http://www.w3.org/2000/svg">
<path d="M5.2168 8.82187V15.1746ZM12.6283 8.82187C12.9091 8.82187 13.1784 8.71032 13.377 8.51176C13.5755 8.3132 13.6871 8.0439 13.6871 7.76309V4.65132C13.6403 4.41154 13.6779 4.16295 13.7934 3.9477C13.9091 3.73247 14.0954 3.56381 14.3212 3.47033C14.5469 3.37686 14.7979 3.36432 15.0318 3.43484C15.2657 3.50534 15.4681 3.65458 15.6046 3.85723L22.8424 11.0951C22.961 11.2138 23.0552 11.3546 23.1195 11.5097C23.1836 11.6648 23.2168 11.8309 23.2168 11.9987C23.2168 12.1666 23.1836 12.3328 23.1195 12.4878C23.0552 12.6429 22.961 12.7838 22.8424 12.9025L15.6046 20.1392C15.4681 20.3419 15.2657 20.4912 15.0318 20.5617C14.7979 20.6322 14.5469 20.6196 14.3212 20.5261C14.0954 20.4326 13.9091 20.264 13.7934 20.0488C13.6779 19.8335 13.6403 19.5849 13.6871 19.3451V16.2333C13.6871 15.9525 13.5755 15.6833 13.377 15.4847C13.1784 15.2861 12.9091 15.1746 12.6283 15.1746H10.5107C10.2299 15.1746 9.96062 15.063 9.76205 14.8645C9.56349 14.6659 9.45195 14.3966 9.45195 14.1158V9.88066C9.45195 9.59985 9.56349 9.33055 9.76205 9.13199C9.96062 8.93343 10.2299 8.82187 10.5107 8.82187H12.6283Z" fill="black" fill-opacity="0.4"/>
<path d="M5.2168 8.8219V15.1746" stroke="black" stroke-opacity="0.4" stroke-width="1.5" stroke-linecap="round" stroke-linejoin="round"/>
<path d="M1.2168 8.8219V15.1746" stroke="black" stroke-opacity="0.4" stroke-width="1.5" stroke-linecap="round" stroke-linejoin="round"/>
<path d="M5.2168 5.82187V12.1746ZM12.6283 5.82187C12.9091 5.82187 13.1784 5.71032 13.377 5.51176C13.5755 5.3132 13.6871 5.0439 13.6871 4.76309V1.65132C13.6403 1.41154 13.6779 1.16295 13.7934 0.947703C13.9091 0.732473 14.0954 0.563808 14.3212 0.470334C14.5469 0.376861 14.7979 0.36432 15.0318 0.434835C15.2657 0.505338 15.4681 0.654576 15.6046 0.857227L22.8424 8.09509C22.961 8.21376 23.0552 8.35464 23.1195 8.5097C23.1836 8.66475 23.2168 8.83093 23.2168 8.99874C23.2168 9.16658 23.1836 9.33277 23.1195 9.48777C23.0552 9.64291 22.961 9.78381 22.8424 9.90248L15.6046 17.1392C15.4681 17.3419 15.2657 17.4912 15.0318 17.5617C14.7979 17.6322 14.5469 17.6196 14.3212 17.5261C14.0954 17.4326 13.9091 17.264 13.7934 17.0488C13.6779 16.8335 13.6403 16.5849 13.6871 16.3451V13.2333C13.6871 12.9525 13.5755 12.6833 13.377 12.4847C13.1784 12.2861 12.9091 12.1746 12.6283 12.1746H10.5107C10.2299 12.1746 9.96062 12.063 9.76205 11.8645C9.56349 11.6659 9.45195 11.3966 9.45195 11.1158V6.88066C9.45195 6.59985 9.56349 6.33055 9.76205 6.13199C9.96062 5.93343 10.2299 5.82187 10.5107 5.82187H12.6283Z" fill="white"/>
<path d="M5.2168 5.8219V12.1746" stroke="white" stroke-width="1.5" stroke-linecap="round" stroke-linejoin="round"/>
<path d="M1.2168 5.8219V12.1746" stroke="white" stroke-width="1.5" stroke-linecap="round" stroke-linejoin="round"/>
</svg>
