<svg width="20" height="20" viewBox="0 0 20 20" fill="none" xmlns="http://www.w3.org/2000/svg">
<path d="M10.547 5.83342H10.8337C11.1835 5.83345 11.5295 5.90692 11.8492 6.04906C12.1689 6.19121 12.4552 6.39887 12.6895 6.65863C12.9239 6.91838 13.1012 7.22443 13.2098 7.557C13.3185 7.88956 13.3561 8.24123 13.3203 8.58926M10.8337 10.8334H7.50033M15.8928 15.8926C14.3301 17.4553 12.2107 18.3332 10.0007 18.3332C7.79078 18.3332 5.67134 17.4553 4.10866 15.8926C2.54598 14.3299 1.66808 12.2105 1.66808 10.0005C1.66808 7.79055 2.54598 5.6711 4.10866 4.10842M1.66699 1.66676L18.3337 18.3334M6.96449 2.23926C8.47325 1.64901 10.1213 1.51134 11.7071 1.84311C13.2929 2.17488 14.7475 2.9617 15.8931 4.10728C17.0387 5.25287 17.8255 6.70754 18.1573 8.29331C18.4891 9.87908 18.3514 11.5272 17.7612 13.0359M7.50033 14.1668V7.50009" stroke="#717182" stroke-width="1.5" stroke-linecap="round" stroke-linejoin="round"/>
</svg>
